<svg id="filled_outline" height="512" viewBox="0 0 512 512" width="512" xmlns="http://www.w3.org/2000/svg" data-name="filled outline"><path d="m344 488v-200a32 32 0 0 0 -15.87613-27.64092l-104.12387-60.73893h-80l-104.12387 60.73893a32 32 0 0 0 -15.87613 27.64092v200z" fill="#548aff"/><path d="m472 488a16 16 0 0 0 16-16v-280a16 16 0 0 0 -16-16h-115.653a16 16 0 0 0 -10.89367 4.28129l-76.347 70.97188a16 16 0 0 0 -5.10633 11.71871v225.02812z" fill="#ffb401"/><path d="m184 248 32 40 58.766-58.766-50.766-29.614h-40z" fill="#7dafff"/><path d="m112 488a88 88 0 0 1 -88-88v88z" fill="#4976f2"/><path d="m350.06 177.29v62.71a15.99568 15.99568 0 0 1 -16 16h-68.46a15.802 15.802 0 0 1 3.51-4.75l76.34-70.97a15.81907 15.81907 0 0 1 4.61-2.99z" fill="#ffcc4d"/><path d="m240 432 49.58347-35.41676a13.09672 13.09672 0 0 1 13.46935-1.05683 13.09675 13.09675 0 0 1 6.98537 14.28255l-6.03819 30.19104 13.38539 6.6927a64.0001 64.0001 0 0 0 39.14321 5.88587l19.97546-3.32925a10.2892 10.2892 0 0 1 10.89447 5.54773 10.28919 10.28919 0 0 1 -4.60146 13.8044l-25.28375 12.64187a64 64 0 0 1 -28.62167 6.75668h-88.89165z" fill="#ffceb6"/><path d="m184 248-32 40-58.766-58.766 50.766-29.614h40z" fill="#7dafff"/><path d="m256 64v112.00007a71.99993 71.99993 0 0 1 -71.99993 71.99993h-.00014a71.99993 71.99993 0 0 1 -71.99993-71.99993v-88.00007l24-24z" fill="#ffceb6"/><path d="m216 40h16a24 24 0 0 1 24 24v32h-6.7018a35.09937 35.09937 0 0 1 -33.2982-24z" fill="#91591c"/><path d="m224 48a24 24 0 0 0 -24-24h-32a56 56 0 0 0 -56 56v16h64.00007a47.99993 47.99993 0 0 0 47.99993-47.99993z" fill="#b1712c"/><path d="m136 120h32v16h-32z"/><path d="m168 208h8a24.02718 24.02718 0 0 0 24-24v-16h-16v16a8.00917 8.00917 0 0 1 -8 8h-8z"/><circle cx="152" cy="152" r="8"/><path d="m200 120h32v16h-32z"/><circle cx="216" cy="152" r="8"/><path d="m472 168h-115.65283a23.9258 23.9258 0 0 0 -16.34082 6.42188l-55.2619 51.37112-28.08307-16.38208a79.49941 79.49941 0 0 0 7.33862-33.41092v-112a32.03635 32.03635 0 0 0 -32-32h-4.30511a32.01144 32.01144 0 0 0 -27.69489-16h-32a64.07239 64.07239 0 0 0 -64 64v96a79.49779 79.49779 0 0 0 7.33875 33.41113l-75.49354 44.03809a40.13358 40.13358 0 0 0 -19.84521 34.55078v200a8.00008 8.00008 0 0 0 8 8h448a24.02718 24.02718 0 0 0 24-24v-280a24.02718 24.02718 0 0 0 -24-24zm-216 242.74023-17.91736 12.7981-46.08264-8.13208v-144.59937l17.75293 22.19117a7.999 7.999 0 0 0 5.80469 2.98925c.148.00879.29541.0127.44287.0127a8.00067 8.00067 0 0 0 5.65625-2.34277l34.68811-34.688a23.8321 23.8321 0 0 0 -.34485 4.00245zm-136-234.74023v-72h56a55.82163 55.82163 0 0 0 39.49774-16.34253 43.038 43.038 0 0 0 32.50226 16.323v72.01953a64 64 0 0 1 -128 0zm141.77106 54.915-45.10749 45.1084-17.22564-21.53272a80.12365 80.12365 0 0 0 49.10223-31.2937zm-13.77106-166.915v23.94849a27.03367 27.03367 0 0 1 -22.4173-13.96265 55.63958 55.63958 0 0 0 6.4173-25.98584 16.01833 16.01833 0 0 1 16 16zm-128 16a48.054 48.054 0 0 1 48-48h32a16.01833 16.01833 0 0 1 16 16 40.04552 40.04552 0 0 1 -40 40h-56zm48.56207 174.49072-17.22564 21.53272-45.10773-45.10865 13.231-7.718a80.12439 80.12439 0 0 0 49.10237 31.29393zm-136.56207 225.50928v-26.99658a96.77871 96.77871 0 0 0 26.9967 26.99658zm200 0h-120a80.09041 80.09041 0 0 1 -80-80v-112a24.08093 24.08093 0 0 1 11.90674-20.73047l48.03076-28.01807 54.40576 54.40577a8.00153 8.00153 0 0 0 5.65625 2.34277c.14746 0 .29492-.00391.44287-.0127a7.999 7.999 0 0 0 5.80469-2.98925l17.75293-22.19117v141.77588l-44.17041-7.79467a23.96785 23.96785 0 0 1 -19.82959-23.63575v-45.15234h-16v45.15234a39.9443 39.9443 0 0 0 33.04883 39.39166l102.95117 18.16791zm16 0v-43.88306l46.23291-33.02319a5.0963 5.0963 0 0 1 7.96045 5.14551l-6.03809 30.1914a8.00027 8.00027 0 0 0 4.26709 8.72461l13.38526 6.69239a71.56174 71.56174 0 0 0 44.03613 6.62207l19.97461-3.32911a2.27755 2.27755 0 0 1 2.4248 1.23438 2.28919 2.28919 0 0 1 -1.02392 3.07129l-25.28369 12.6416a56.28061 56.28061 0 0 1 -25.04395 5.91211zm232-8a8.00917 8.00917 0 0 1 -8 8h-94.1123l8.48632-4.24316a18.28941 18.28941 0 0 0 -11.18502-34.39942l-19.97509 3.3291a55.66078 55.66078 0 0 1 -34.251-5.14941l-7.91992-3.96 4.83984-24.19922a21.09676 21.09676 0 0 0 -32.94922-21.30469l-12.93361 9.23832v-136.33984a8.02714 8.02714 0 0 1 2.55322-5.85938l67.50586-62.75341v45.64111a8.00917 8.00917 0 0 1 -8 8h-30.05908v16h30.05908a24.02718 24.02718 0 0 0 24-24v-56h113.94092a8.00917 8.00917 0 0 1 8 8z"/><path d="m297.941 296h16v16h-16z"/><path d="m328 296h57.941v16h-57.941z"/><path d="m401.941 296h54.059v16h-54.059z"/><path d="m297.941 328h38.059v16h-38.059z"/><path d="m352 328h73.941v16h-73.941z"/><path d="m441.941 328h14.059v16h-14.059z"/><path d="m328 360h56v16h-56z"/><path d="m400 360h56v16h-56z"/><path d="m408 440h48v16h-48z"/><path d="m400 408h56v16h-56z"/><path d="m368 408h16v16h-16z"/><path d="m392 208h16v16h-16z"/><path d="m424 208h32v16h-32z"/><path d="m440 240h16v16h-16z"/><path d="m392 240h32v16h-32z"/></svg>