<?xml version="1.0" encoding="windows-1252"?>
<!-- Generator: Adobe Illustrator 19.0.0, SVG Export Plug-In . SVG Version: 6.00 Build 0)  -->
<svg version="1.1" id="Capa_1" xmlns="http://www.w3.org/2000/svg" xmlns:xlink="http://www.w3.org/1999/xlink" x="0px" y="0px" viewBox="0 0 409.601 409.601" style="enable-background:new 0 0 409.601 409.601;" xml:space="preserve">
<path style="fill:#E56353;" d="M393.635,41.834H15.968c-8.818,0-15.966,7.07-15.966,15.791v54.073h409.599V57.625  C409.601,48.904,402.453,41.834,393.635,41.834z"/>
<g>
	<ellipse style="fill:#D15241;" cx="101.1" cy="75.449" rx="14.029" ry="13.875"/>
	<ellipse style="fill:#D15241;" cx="60.601" cy="75.449" rx="14.029" ry="13.875"/>
</g>
<g>
	<path style="fill:#64798A;" d="M60.601,0c-6.328,0-11.459,5.073-11.459,11.333v61.001c0,6.259,5.13,11.333,11.459,11.333   s11.46-5.074,11.46-11.333V11.333C72.06,5.074,66.929,0,60.601,0z"/>
	<path style="fill:#64798A;" d="M101.098,0C94.77,0,89.64,5.074,89.64,11.333v61.001c0,6.259,5.13,11.333,11.458,11.333   c6.329,0,11.459-5.074,11.459-11.333V11.333C112.557,5.074,107.427,0,101.098,0z"/>
</g>
<g>
	<ellipse style="fill:#D15241;" cx="348.98" cy="75.449" rx="14.029" ry="13.875"/>
	<ellipse style="fill:#D15241;" cx="308.48" cy="75.449" rx="14.029" ry="13.875"/>
</g>
<g>
	<path style="fill:#64798A;" d="M308.502,0c-6.327,0-11.458,5.073-11.458,11.333v61.001c0,6.259,5.131,11.333,11.458,11.333   c6.329,0,11.46-5.074,11.46-11.333V11.333C319.963,5.074,314.831,0,308.502,0z"/>
	<path style="fill:#64798A;" d="M349,0c-6.328,0-11.459,5.073-11.459,11.333v61.001c0,6.259,5.131,11.333,11.459,11.333   c6.329,0,11.459-5.074,11.459-11.333V11.333C360.459,5.074,355.329,0,349,0z"/>
</g>
<rect x="0" y="111.698" style="fill:#E1E6E9;" width="409.6" height="14.024"/>
<path style="fill:#EBF0F3;" d="M0,125.725v268.083c0,8.721,7.15,15.793,15.968,15.793h377.666c8.818,0,15.966-7.071,15.966-15.793  V125.725H0z"/>
<path style="fill:#D5D6DB;" d="M218.765,150.95h-27.927c-3.942,0-7.138,3.195-7.138,7.137v27.927c0,3.942,3.196,7.136,7.138,7.136  h27.927c3.939,0,7.136-3.194,7.136-7.136v-27.927C225.9,154.145,222.704,150.95,218.765,150.95z"/>
<path style="fill:#E56353;" d="M292.628,150.95h-27.927c-3.942,0-7.138,3.195-7.138,7.137v27.927c0,3.942,3.196,7.136,7.138,7.136  h27.927c3.94,0,7.136-3.194,7.136-7.136v-27.927C299.764,154.145,296.568,150.95,292.628,150.95z"/>
<path style="fill:#44C4A1;" d="M366.492,150.95h-27.927c-3.942,0-7.138,3.195-7.138,7.137v27.927c0,3.942,3.196,7.136,7.138,7.136  h27.927c3.939,0,7.136-3.194,7.136-7.136v-27.927C373.627,154.145,370.431,150.95,366.492,150.95z"/>
<g>
	<path style="fill:#D5D6DB;" d="M71.038,214.692H43.111c-3.942,0-7.138,3.195-7.138,7.136v27.927c0,3.942,3.196,7.137,7.138,7.137   h27.927c3.94,0,7.136-3.195,7.136-7.137v-27.927C78.174,217.887,74.978,214.692,71.038,214.692z"/>
	<path style="fill:#D5D6DB;" d="M144.901,214.692h-27.927c-3.942,0-7.138,3.195-7.138,7.136v27.927c0,3.942,3.196,7.137,7.138,7.137   h27.927c3.94,0,7.136-3.195,7.136-7.137v-27.927C152.037,217.887,148.841,214.692,144.901,214.692z"/>
	<path style="fill:#D5D6DB;" d="M218.765,214.692h-27.927c-3.942,0-7.138,3.195-7.138,7.136v27.927c0,3.942,3.196,7.137,7.138,7.137   h27.927c3.939,0,7.136-3.195,7.136-7.137v-27.927C225.9,217.887,222.704,214.692,218.765,214.692z"/>
</g>
<path style="fill:#E56353;" d="M292.628,214.692h-27.927c-3.942,0-7.138,3.195-7.138,7.136v27.927c0,3.942,3.196,7.137,7.138,7.137  h27.927c3.94,0,7.136-3.195,7.136-7.137v-27.927C299.764,217.887,296.568,214.692,292.628,214.692z"/>
<path style="fill:#44C4A1;" d="M366.492,214.692h-27.927c-3.942,0-7.138,3.195-7.138,7.136v27.927c0,3.942,3.196,7.137,7.138,7.137  h27.927c3.939,0,7.136-3.195,7.136-7.137v-27.927C373.627,217.887,370.431,214.692,366.492,214.692z"/>
<g>
	<path style="fill:#D5D6DB;" d="M71.038,278.433H43.111c-3.942,0-7.138,3.194-7.138,7.136v27.927c0,3.942,3.196,7.137,7.138,7.137   h27.927c3.94,0,7.136-3.195,7.136-7.137V285.57C78.174,281.628,74.978,278.433,71.038,278.433z"/>
	<path style="fill:#D5D6DB;" d="M144.901,278.433h-27.927c-3.942,0-7.138,3.194-7.138,7.136v27.927c0,3.942,3.196,7.137,7.138,7.137   h27.927c3.94,0,7.136-3.195,7.136-7.137V285.57C152.037,281.628,148.841,278.433,144.901,278.433z"/>
	<path style="fill:#D5D6DB;" d="M218.765,278.433h-27.927c-3.942,0-7.138,3.194-7.138,7.136v27.927c0,3.942,3.196,7.137,7.138,7.137   h27.927c3.939,0,7.136-3.195,7.136-7.137V285.57C225.9,281.628,222.704,278.433,218.765,278.433z"/>
</g>
<path style="fill:#E56353;" d="M292.628,278.433h-27.927c-3.942,0-7.138,3.194-7.138,7.136v27.927c0,3.942,3.196,7.137,7.138,7.137  h27.927c3.94,0,7.136-3.195,7.136-7.137V285.57C299.764,281.628,296.568,278.433,292.628,278.433z"/>
<path style="fill:#44C4A1;" d="M366.492,278.433h-27.927c-3.942,0-7.138,3.194-7.138,7.136v27.927c0,3.942,3.196,7.137,7.138,7.137  h27.927c3.939,0,7.136-3.195,7.136-7.137V285.57C373.627,281.628,370.431,278.433,366.492,278.433z"/>
<g>
	<path style="fill:#D5D6DB;" d="M71.038,342.175H43.111c-3.942,0-7.138,3.194-7.138,7.136v27.927c0,3.942,3.196,7.137,7.138,7.137   h27.927c3.94,0,7.136-3.195,7.136-7.137v-27.927C78.174,345.37,74.978,342.175,71.038,342.175z"/>
	<path style="fill:#D5D6DB;" d="M144.901,342.175h-27.927c-3.942,0-7.138,3.194-7.138,7.136v27.927c0,3.942,3.196,7.137,7.138,7.137   h27.927c3.94,0,7.136-3.195,7.136-7.137v-27.927C152.037,345.37,148.841,342.175,144.901,342.175z"/>
</g>
<g>
</g>
<g>
</g>
<g>
</g>
<g>
</g>
<g>
</g>
<g>
</g>
<g>
</g>
<g>
</g>
<g>
</g>
<g>
</g>
<g>
</g>
<g>
</g>
<g>
</g>
<g>
</g>
<g>
</g>
</svg>