<?xml version="1.0" encoding="windows-1252"?>
<!-- Generator: Adobe Illustrator 19.0.0, SVG Export Plug-In . SVG Version: 6.00 Build 0)  -->
<svg version="1.1" id="Capa_1" xmlns="http://www.w3.org/2000/svg" xmlns:xlink="http://www.w3.org/1999/xlink" x="0px" y="0px" viewBox="0 0 409.6 409.6" style="enable-background:new 0 0 409.6 409.6;" xml:space="preserve">
<path style="fill:#64798A;" d="M341.94,33.527H67.66c-5.507,0-9.974,4.669-9.974,10.429v355.216c0,5.759,4.467,10.428,9.974,10.428  h274.28c5.509,0,9.974-4.668,9.974-10.428V43.956C351.914,38.196,347.449,33.527,341.94,33.527z"/>
<rect x="79.631" y="54.226" style="fill:#E1E6E9;" width="250.337" height="335.206"/>
<rect x="79.631" y="46.797" style="fill:#FFFFFF;" width="250.337" height="335.206"/>
<rect x="101.949" y="69.12" style="fill:#E56353;" width="205.67" height="113.884"/>
<path style="fill:#FCD462;" d="M255.215,30.838h-100.83V6.939c0-3.832,3.107-6.939,6.939-6.939h86.951  c3.832,0,6.939,3.107,6.939,6.939V30.838z"/>
<path style="fill:#F6C358;" d="M255.215,30.838h-100.83L132.983,52.24c-3.866,3.865-1.128,10.475,4.339,10.475h134.957  c5.467,0,8.205-6.609,4.339-10.475L255.215,30.838z"/>
<g>
	<polygon style="fill:#EBF0F3;" points="143.208,176.09 129.105,125.973 93.389,125.973 93.389,118.526 134.749,118.526    142.858,147.363 161.076,76.031 182.792,135.741 200.109,98.796 224.967,148.141 239.913,76.199 270.735,130.781 276.887,118.526    316.211,118.526 316.211,125.973 281.484,125.973 271.128,146.606 243.171,97.116 227.92,170.555 200.356,115.828 181.92,155.145    162.328,101.254  "/>
	<rect x="101.97" y="201.114" style="fill:#EBF0F3;" width="205.67" height="7.444"/>
	<rect x="101.97" y="230.656" style="fill:#EBF0F3;" width="205.67" height="7.45"/>
	<rect x="101.97" y="260.163" style="fill:#EBF0F3;" width="205.67" height="7.444"/>
	<rect x="101.97" y="289.69" style="fill:#EBF0F3;" width="205.67" height="7.444"/>
	<rect x="101.97" y="319.181" style="fill:#EBF0F3;" width="205.67" height="7.444"/>
	<rect x="101.97" y="348.723" style="fill:#EBF0F3;" width="205.67" height="7.444"/>
</g>
<g>
</g>
<g>
</g>
<g>
</g>
<g>
</g>
<g>
</g>
<g>
</g>
<g>
</g>
<g>
</g>
<g>
</g>
<g>
</g>
<g>
</g>
<g>
</g>
<g>
</g>
<g>
</g>
<g>
</g>
</svg>